<mxfile host="app.diagrams.net" agent="Mozilla/5.0 (Windows NT 10.0; Win64; x64) AppleWebKit/537.36 (KHTML, like Gecko) Chrome/136.0.0.0 Safari/537.36" version="27.0.6">
  <diagram name="Purview Auto-Categorization Flow" id="0">
    <mxGraphModel dx="1426" dy="743" grid="1" gridSize="10" guides="1" tooltips="1" connect="1" arrows="1" fold="1" page="1" pageScale="1" pageWidth="850" pageHeight="1100" math="0" shadow="0">
      <root>
        <mxCell id="0" />
        <mxCell id="1" parent="0" />
        <mxCell id="2" value="Security Engineer" style="swimlane" parent="1" vertex="1">
          <mxGeometry width="280" height="1000" as="geometry" />
        </mxCell>
        <mxCell id="5" value="" style="ellipse;whiteSpace=wrap;html=1;aspect=fixed;fillColor=#000000;" parent="2" vertex="1">
          <mxGeometry x="120" y="20" width="30" height="30" as="geometry" />
        </mxCell>
        <mxCell id="6" value="Define Sensitivity Labels &amp; Policies in Purview" style="rounded=1;whiteSpace=wrap;html=1;" parent="2" vertex="1">
          <mxGeometry x="35" y="90" width="200" height="60" as="geometry" />
        </mxCell>
        <mxCell id="8" value="Deploy Policy to Microsoft Purview" style="rounded=1;whiteSpace=wrap;html=1;" parent="2" vertex="1">
          <mxGeometry x="35" y="330" width="200" height="60" as="geometry" />
        </mxCell>
        <mxCell id="e1" style="endArrow=none;" parent="2" source="5" target="6" edge="1">
          <mxGeometry relative="1" as="geometry" />
        </mxCell>
        <mxCell id="e4" style="endArrow=block;exitX=1;exitY=0.5;exitDx=0;exitDy=0;entryX=0;entryY=0.5;entryDx=0;entryDy=0;" parent="2" source="8" target="9" edge="1">
          <mxGeometry relative="1" as="geometry" />
        </mxCell>
        <mxCell id="7" value="Configure Auto-Labeling Logic (e.g., regex, classifiers)" style="rounded=1;whiteSpace=wrap;html=1;" parent="2" vertex="1">
          <mxGeometry x="35" y="220" width="200" height="60" as="geometry" />
        </mxCell>
        <mxCell id="e2" style="endArrow=block;" parent="2" source="6" target="7" edge="1">
          <mxGeometry relative="1" as="geometry" />
        </mxCell>
        <mxCell id="e3" style="endArrow=block;" parent="2" source="7" target="8" edge="1">
          <mxGeometry relative="1" as="geometry" />
        </mxCell>
        <mxCell id="3" value="Microsoft Purview" style="swimlane" parent="1" vertex="1">
          <mxGeometry x="280" width="280" height="1000" as="geometry" />
        </mxCell>
        <mxCell id="9" value="Evaluate Files and Communications (In-Place &amp; In-Transit)" style="rounded=1;whiteSpace=wrap;html=1;" parent="3" vertex="1">
          <mxGeometry x="50" y="100" width="200" height="60" as="geometry" />
        </mxCell>
        <mxCell id="10" value="Match Sensitivity Conditions (e.g., PII, keywords, patterns)" style="rounded=1;whiteSpace=wrap;html=1;" parent="3" vertex="1">
          <mxGeometry x="40" y="370" width="200" height="60" as="geometry" />
        </mxCell>
        <mxCell id="11" value="Apply Sensitivity Label Automatically" style="rounded=1;whiteSpace=wrap;html=1;" parent="3" vertex="1">
          <mxGeometry x="40" y="490" width="200" height="60" as="geometry" />
        </mxCell>
        <mxCell id="e6" style="endArrow=block;" parent="3" source="10" target="11" edge="1">
          <mxGeometry relative="1" as="geometry" />
        </mxCell>
        <mxCell id="4" value="Data Sources (Teams, Box, Email, Workstations)" style="swimlane" parent="1" vertex="1">
          <mxGeometry x="560" width="280" height="1000" as="geometry" />
        </mxCell>
        <mxCell id="12" value="Files Shared, Created, or Moved Across Sources" style="rounded=1;whiteSpace=wrap;html=1;" parent="4" vertex="1">
          <mxGeometry x="50" y="100" width="200" height="60" as="geometry" />
        </mxCell>
        <mxCell id="13" value="Files Tagged with Labels (Internal, Confidential, etc.)" style="rounded=1;whiteSpace=wrap;html=1;" parent="4" vertex="1">
          <mxGeometry x="40" y="490" width="200" height="60" as="geometry" />
        </mxCell>
        <mxCell id="14" value="" style="ellipse;whiteSpace=wrap;html=1;aspect=fixed;fillColor=#000000;" parent="4" vertex="1">
          <mxGeometry x="125" y="660" width="30" height="30" as="geometry" />
        </mxCell>
        <mxCell id="e8" style="endArrow=block;exitX=0.5;exitY=1;exitDx=0;exitDy=0;" parent="4" source="13" target="14" edge="1">
          <mxGeometry relative="1" as="geometry" />
        </mxCell>
        <mxCell id="1k9Z57tyJJlGHDa8tPAZ-14" value="" style="endArrow=classic;html=1;rounded=0;exitX=1;exitY=0.5;exitDx=0;exitDy=0;entryX=0;entryY=0.5;entryDx=0;entryDy=0;" edge="1" parent="1" source="9" target="12">
          <mxGeometry width="50" height="50" relative="1" as="geometry">
            <mxPoint x="400" y="410" as="sourcePoint" />
            <mxPoint x="450" y="360" as="targetPoint" />
          </mxGeometry>
        </mxCell>
        <mxCell id="e5" style="endArrow=block;exitX=0.5;exitY=1;exitDx=0;exitDy=0;" parent="1" source="12" target="10" edge="1">
          <mxGeometry relative="1" as="geometry" />
        </mxCell>
        <mxCell id="1k9Z57tyJJlGHDa8tPAZ-16" value="" style="endArrow=classic;html=1;rounded=0;exitX=1;exitY=0.5;exitDx=0;exitDy=0;entryX=0;entryY=0.5;entryDx=0;entryDy=0;" edge="1" parent="1" source="11" target="13">
          <mxGeometry width="50" height="50" relative="1" as="geometry">
            <mxPoint x="400" y="410" as="sourcePoint" />
            <mxPoint x="450" y="360" as="targetPoint" />
          </mxGeometry>
        </mxCell>
      </root>
    </mxGraphModel>
  </diagram>
</mxfile>
